name C:\Users\Nicos\Documents\OpenSimProjects\SprintingProject\Study1\PredictiveResults\IC_pred_Sprinting_optimum_28-October-2023__09-53-48___HTD_Minus_6_p02_maxVel_01.mot
datacolumns 38
datarows 5
range 0.20408034 0.20801395
endheader
                time	/jointset/ground_pelvis/pelvis_tilt/value	/jointset/ground_pelvis/pelvis_list/value	/jointset/ground_pelvis/pelvis_rotation/value	/jointset/ground_pelvis/pelvis_tx/value	/jointset/ground_pelvis/pelvis_ty/value	/jointset/ground_pelvis/pelvis_tz/value	/jointset/hip_r/hip_flexion_r/value	/jointset/hip_r/hip_adduction_r/value	/jointset/hip_r/hip_rotation_r/value	/jointset/knee_r/knee_angle_r/value	/jointset/ankle_r/ankle_angle_r/value	/jointset/subtalar_r/subtalar_angle_r/value	/jointset/mtp_r/mtp_angle_r/value	/jointset/hip_l/hip_flexion_l/value	/jointset/hip_l/hip_adduction_l/value	/jointset/hip_l/hip_rotation_l/value	/jointset/knee_l/knee_angle_l/value	/jointset/ankle_l/ankle_angle_l/value	/jointset/subtalar_l/subtalar_angle_l/value	/jointset/mtp_l/mtp_angle_l/value	/jointset/back/lumbar_extension/value	/jointset/back/lumbar_bending/value	/jointset/back/lumbar_rotation/value	/jointset/acromial_r/arm_flex_r/value	/jointset/acromial_r/arm_add_r/value	/jointset/acromial_r/arm_rot_r/value	/jointset/elbow_r/elbow_flex_r/value	/jointset/radioulnar_r/pro_sup_r/value	/jointset/radius_hand_r/wrist_flex_r/value	/jointset/radius_hand_r/wrist_dev_r/value	/jointset/acromial_l/arm_flex_l/value	/jointset/acromial_l/arm_add_l/value	/jointset/acromial_l/arm_rot_l/value	/jointset/elbow_l/elbow_flex_l/value	/jointset/radioulnar_l/pro_sup_l/value	/jointset/radius_hand_l/wrist_flex_l/value	/jointset/radius_hand_l/wrist_dev_l/value	
          0.20408034	         -2.82192578	          5.97835299	         -3.59487609	          1.62082140	          1.01232421	          0.31199884	          7.76553974	         -8.67652025	          6.73436665	        -91.82462982	        -20.92141844	        -11.80523506	        -10.43282002	         53.22702787	          2.34912575	          4.10448209	        -34.94937088	        -14.19631189	        -18.98983607	         13.10390636	        -25.70080758	        -10.31282353	          6.30245880	         48.14912734	        -25.10994240	        -13.30819158	         67.96431581	         70.05455628	          5.45240574	          6.20390666	        -57.24179268	        -20.67085437	        -14.44332043	         82.60175907	         63.87234084	          7.17665669	          5.75006706	
          0.20547698	         -2.86449450	          5.95407747	         -3.22450331	          1.63625848	          1.01275407	          0.31199294	          8.23121249	         -8.56538027	          6.56783812	        -92.61469777	        -20.55340931	        -11.93859095	        -10.43415255	         52.52008539	          2.62970533	          4.54955227	        -34.06041152	        -14.51955625	        -19.41213623	         13.27322355	        -25.73938406	        -10.29021209	          6.15864939	         46.53423404	        -25.40975447	        -13.55399059	         68.19755527	         69.46484315	          5.28296719	          6.16210965	        -56.47855709	        -21.28660038	        -14.54475543	         83.49955610	         63.31246842	          7.09413659	          5.71016152	
          0.20547698	         -2.86449450	          5.95407747	         -3.22450331	          1.63625848	          1.01275407	          0.31199294	          8.23121249	         -8.56538027	          6.56783812	        -92.61469777	        -20.55340931	        -11.93859095	        -10.43415255	         52.52008539	          2.62970533	          4.54955227	        -34.06041152	        -14.51955625	        -19.41213623	         13.27322355	        -25.73938406	        -10.29021209	          6.15864939	         46.53423404	        -25.40975447	        -13.55399059	         68.19755527	         69.46484315	          5.28296719	          6.16210965	        -56.47855709	        -21.28660038	        -14.54475543	         83.49955610	         63.31246842	          7.09413659	          5.71016152	
          0.20608688	         -2.88542420	          5.94247566	         -3.06233344	          1.64300318	          1.01292985	          0.31198747	          8.44143901	         -8.51724635	          6.49490741	        -92.96027501	        -20.39023058	        -12.00015110	        -10.43207325	         52.21307887	          2.74897252	          4.74161938	        -33.68242328	        -14.65408150	        -19.60099753	         13.36832704	        -25.75258217	        -10.27773584	          6.09491741	         45.81996483	        -25.52622063	        -13.66422372	         68.31534165	         69.20796270	          5.21126201	          6.14392212	        -56.13451963	        -21.55270917	        -14.57582517	         83.90525304	         63.06949846	          7.05965388	          5.69274455	
          0.20801395	         -2.96141545	          5.90218279	         -2.54749212	          1.66432428	          1.01343686	          0.31195757	          9.13378204	         -8.36763514	          6.26321627	        -94.05428688	        -19.86529781	        -12.20761458	        -10.41473437	         51.25127013	          3.11274548	          5.33649722	        -32.52742346	        -15.09297841	        -20.19183239	         13.74059643	        -25.77937993	        -10.22809342	          5.88720065	         43.53538524	        -25.83638506	        -14.01115782	         68.73930365	         68.39820126	          4.99470977	          6.08586009	        -54.99980250	        -22.37060995	        -14.64171417	         85.22772771	         62.30764553	          6.95722429	          5.63714422	
